<?xml version="1.0" standalone="no"?>
<!DOCTYPE svg PUBLIC "-//W3C//DTD SVG 20010904//EN"
 "http://www.w3.org/TR/2001/REC-SVG-20010904/DTD/svg10.dtd">
<svg version="1.0" xmlns="http://www.w3.org/2000/svg"
 width="260.000000pt" height="260.000000pt" viewBox="0 0 260.000000 260.000000"
 preserveAspectRatio="xMidYMid meet">
<metadata>
Created by potrace 1.11, written by Peter Selinger 2001-2013
</metadata>
<g transform="translate(0.000000,260.000000) scale(0.100000,-0.100000)"
fill="#000000" stroke="none">
<path d="M455 2163 c78 -203 407 -1104 407 -1118 0 -15 -108 -492 -149 -652
l-5 -23 235 0 236 0 9 32 c5 18 42 175 83 350 l73 316 458 554 459 553 -263 3
c-144 1 -268 0 -274 -2 -6 -2 -124 -154 -264 -338 -139 -183 -258 -339 -265
-346 -10 -11 -35 53 -130 337 l-117 351 -250 0 c-234 0 -250 -1 -243 -17z"/>
</g>
</svg>
